{"scene":0,"asset":{"generator":"ImageToStl.com","version":"2.0"},"scenes":[{"name":"Scene","nodes":[0]}],"nodes":[{"name":"Node0","children":[1,2,3]},{"name":"Node1","mesh":0},{"name":"Node2","mesh":1},{"name":"Node3","mesh":2}],"materials":[{"name":"Material.004","pbrMetallicRoughness":{"baseColorFactor":[0.8,0.8,0.8,1.0],"metallicFactor":0.263636,"roughnessFactor":0.2775},"emissiveFactor":[0.0,0.0,0.0],"doubleSided":true},{"name":"Material.005","pbrMetallicRoughness":{"baseColorFactor":[0.003416,0.003416,0.003416,1.0],"metallicFactor":0.245455,"roughnessFactor":0.2928719},"emissiveFactor":[0.0,0.0,0.0],"doubleSided":true},{"name":"Material.001","pbrMetallicRoughness":{"baseColorFactor":[0.8,0.8,0.8,1.0],"metallicFactor":0.977273,"roughnessFactor":0.75},"emissiveFactor":[0.0,0.0,0.0],"doubleSided":true},{"name":"Material.003","pbrMetallicRoughness":{"baseColorFactor":[0.8,0.8,0.8,1.0],"metallicFactor":0.268182,"roughnessFactor":0.18999998},"emissiveFactor":[0.0,0.0,0.0],"doubleSided":true},{"name":"Material.006","pbrMetallicRoughness":{"baseColorFactor":[0.8,0.8,0.8,1.0],"metallicFactor":0.918182,"roughnessFactor":0.75},"emissiveFactor":[0.0,0.0,0.0],"doubleSided":true},{"name":"Material.007","pbrMetallicRoughness":{"baseColorFactor":[0.003427,0.003427,0.003427,1.0],"metallicFactor":0.25,"roughnessFactor":0.21435952},"emissiveFactor":[0.0,0.0,0.0],"doubleSided":true},{"name":"Material.009","pbrMetallicRoughness":{"baseColorFactor":[0.8,0.8,0.8,1.0],"metallicFactor":1.0,"roughnessFactor":0.0},"emissiveFactor":[0.0,0.0,0.0],"doubleSided":true}],"meshes":[{"name":"Mesh0","primitives":[{"indices":3,"material":0,"attributes":{"POSITION":0,"NORMAL":1,"TEXCOORD_0":2}},{"indices":4,"material":2,"attributes":{"POSITION":0,"NORMAL":1,"TEXCOORD_0":2}},{"indices":5,"material":3,"attributes":{"POSITION":0,"NORMAL":1,"TEXCOORD_0":2}}]},{"name":"Mesh0","primitives":[{"indices":9,"material":0,"attributes":{"POSITION":6,"NORMAL":7,"TEXCOORD_0":8}},{"indices":10,"material":2,"attributes":{"POSITION":6,"NORMAL":7,"TEXCOORD_0":8}},{"indices":11,"material":3,"attributes":{"POSITION":6,"NORMAL":7,"TEXCOORD_0":8}}]},{"name":"Mesh0","primitives":[{"indices":15,"material":0,"attributes":{"POSITION":12,"NORMAL":13,"TEXCOORD_0":14}},{"indices":16,"material":1,"attributes":{"POSITION":12,"NORMAL":13,"TEXCOORD_0":14}},{"indices":17,"material":4,"attributes":{"POSITION":12,"NORMAL":13,"TEXCOORD_0":14}},{"indices":18,"material":5,"attributes":{"POSITION":12,"NORMAL":13,"TEXCOORD_0":14}},{"indices":19,"material":6,"attributes":{"POSITION":12,"NORMAL":13,"TEXCOORD_0":14}}]}],"accessors":[{"bufferView":0,"componentType":5126,"count":1793,"type":"VEC3","min":[0.9860992,-1.0866919,-0.110562354],"max":[7.8324065,3.2773066,0.110562354]},{"bufferView":1,"componentType":5126,"count":1793,"type":"VEC3"},{"bufferView":2,"componentType":5126,"count":1793,"type":"VEC2"},{"bufferView":3,"componentType":5123,"count":19404,"type":"SCALAR"},{"bufferView":4,"componentType":5123,"count":36,"type":"SCALAR"},{"bufferView":5,"componentType":5123,"count":180,"type":"SCALAR"},{"bufferView":6,"componentType":5126,"count":1793,"type":"VEC3","min":[-7.8510365,-1.109903,-0.110562354],"max":[-1.0047288,3.2540975,0.110562354]},{"bufferView":7,"componentType":5126,"count":1793,"type":"VEC3"},{"bufferView":8,"componentType":5126,"count":1793,"type":"VEC2"},{"bufferView":9,"componentType":5123,"count":19404,"type":"SCALAR"},{"bufferView":10,"componentType":5123,"count":36,"type":"SCALAR"},{"bufferView":11,"componentType":5123,"count":180,"type":"SCALAR"},{"bufferView":12,"componentType":5126,"count":17563,"type":"VEC3","min":[-1.0547817,-2.2881007,-1.2828],"max":[1.0547818,3.3633707,2.5393913]},{"bufferView":13,"componentType":5126,"count":17563,"type":"VEC3"},{"bufferView":14,"componentType":5126,"count":17563,"type":"VEC2"},{"bufferView":15,"componentType":5123,"count":73926,"type":"SCALAR"},{"bufferView":16,"componentType":5123,"count":68436,"type":"SCALAR"},{"bufferView":17,"componentType":5123,"count":112338,"type":"SCALAR"},{"bufferView":18,"componentType":5123,"count":6318,"type":"SCALAR"},{"bufferView":19,"componentType":5123,"count":144,"type":"SCALAR"}],"bufferViews":[{"target":34962,"buffer":0,"byteLength":21516,"byteOffset":0},{"target":34962,"buffer":0,"byteLength":21516,"byteOffset":21516},{"target":34962,"buffer":0,"byteLength":14344,"byteOffset":43032},{"target":34963,"buffer":0,"byteLength":38808,"byteOffset":57376},{"target":34963,"buffer":0,"byteLength":72,"byteOffset":96184},{"target":34963,"buffer":0,"byteLength":360,"byteOffset":96256},{"target":34962,"buffer":0,"byteLength":21516,"byteOffset":96616},{"target":34962,"buffer":0,"byteLength":21516,"byteOffset":118132},{"target":34962,"buffer":0,"byteLength":14344,"byteOffset":139648},{"target":34963,"buffer":0,"byteLength":38808,"byteOffset":153992},{"target":34963,"buffer":0,"byteLength":72,"byteOffset":192800},{"target":34963,"buffer":0,"byteLength":360,"byteOffset":192872},{"target":34962,"buffer":0,"byteLength":210756,"byteOffset":193232},{"target":34962,"buffer":0,"byteLength":210756,"byteOffset":403988},{"target":34962,"buffer":0,"byteLength":140504,"byteOffset":614744},{"target":34963,"buffer":0,"byteLength":147852,"byteOffset":755248},{"target":34963,"buffer":0,"byteLength":136872,"byteOffset":903100},{"target":34963,"buffer":0,"byteLength":224676,"byteOffset":1039972},{"target":34963,"buffer":0,"byteLength":12636,"byteOffset":1264648},{"target":34963,"buffer":0,"byteLength":288,"byteOffset":1277284}],"buffers":[{"byteLength":1277572,"uri":"data:application/octet-stream;base64,"}]}